<svg width="22px" height="22px" viewBox="0 0 22 22" version="1.1" xmlns="http://www.w3.org/2000/svg" xmlns:xlink="http://www.w3.org/1999/xlink">
    <g id="Page-1" stroke="none" stroke-width="1" fill="none" fill-rule="evenodd">
        <g id="chat_1:1" transform="translate(-893.000000, -625.000000)" fill="#D1D9E6" fill-rule="nonzero">
            <g id="chats" transform="translate(21.000000, 0.000000)">
                <g id="active-chat" transform="translate(321.000000, 0.000000)">
                    <g id="input" transform="translate(41.000000, 601.000000)">
                        <path d="M521,25.8333333 C526.0545,25.8333333 530.166667,29.9455 530.166667,35 C530.166667,40.0545 526.0545,44.1666667 521,44.1666667 C515.9455,44.1666667 511.833333,40.0545 511.833333,35 C511.833333,29.9455 515.9455,25.8333333 521,25.8333333 Z M521,24 C514.92525,24 510,28.92525 510,35 C510,41.07475 514.92525,46 521,46 C527.07475,46 532,41.07475 532,35 C532,28.92525 527.07475,24 521,24 Z M526.048083,36.77925 C524.662083,37.8746667 523.138583,38.5493333 521.000917,38.5493333 C518.861417,38.5493333 517.337917,37.8746667 515.951917,36.77925 L515.5,37.2311667 C516.533083,38.8078333 518.433333,40.5 521.000917,40.5 C523.567583,40.5 525.466917,38.8078333 526.5,37.2311667 L526.048083,36.77925 Z M517.791667,31.3333333 C517.032667,31.3333333 516.416667,31.9484167 516.416667,32.7083333 C516.416667,33.46825 517.032667,34.0833333 517.791667,34.0833333 C518.550667,34.0833333 519.166667,33.46825 519.166667,32.7083333 C519.166667,31.9484167 518.550667,31.3333333 517.791667,31.3333333 Z M524.208333,31.3333333 C523.449333,31.3333333 522.833333,31.9484167 522.833333,32.7083333 C522.833333,33.46825 523.449333,34.0833333 524.208333,34.0833333 C524.967333,34.0833333 525.583333,33.46825 525.583333,32.7083333 C525.583333,31.9484167 524.967333,31.3333333 524.208333,31.3333333 L524.208333,31.3333333 Z" id="ic-smiles"></path>
                    </g>
                </g>
            </g>
        </g>
    </g>
</svg>