<svg width="18px" height="21px" viewBox="0 0 18 21" version="1.1" xmlns="http://www.w3.org/2000/svg" xmlns:xlink="http://www.w3.org/1999/xlink">
    <g id="Page-1" stroke="none" stroke-width="1" fill="none" fill-rule="evenodd">
        <g id="chat_1:1" transform="translate(-935.000000, -626.000000)" fill="#D1D9E6" fill-rule="nonzero">
            <g id="chats" transform="translate(21.000000, 0.000000)">
                <g id="active-chat" transform="translate(321.000000, 0.000000)">
                    <g id="input" transform="translate(41.000000, 601.000000)">
                        <path d="M565.263158,25 L553.894737,25 C552.852632,25 552,25.8526316 552,26.8947368 L552,40.1578947 L553.894737,40.1578947 L553.894737,26.8947368 L565.263158,26.8947368 L565.263158,25 Z M568.105263,28.7894737 L557.684211,28.7894737 C556.642105,28.7894737 555.789474,29.6421053 555.789474,30.6842105 L555.789474,43.9473684 C555.789474,44.9894737 556.642105,45.8421053 557.684211,45.8421053 L568.105263,45.8421053 C569.147368,45.8421053 570,44.9894737 570,43.9473684 L570,30.6842105 C570,29.6421053 569.147368,28.7894737 568.105263,28.7894737 Z M568.105263,43.9473684 L557.684211,43.9473684 L557.684211,30.6842105 L568.105263,30.6842105 L568.105263,43.9473684 Z" id="ic-file"></path>
                    </g>
                </g>
            </g>
        </g>
    </g>
</svg>